<?xml version="1.0" standalone="no"?>
<!DOCTYPE svg PUBLIC "-//W3C//DTD SVG 20010904//EN"
 "http://www.w3.org/TR/2001/REC-SVG-20010904/DTD/svg10.dtd">
<svg version="1.0" xmlns="http://www.w3.org/2000/svg"
 width="512.000000pt" height="512.000000pt" viewBox="0 0 512.000000 512.000000"
 preserveAspectRatio="xMidYMid meet">
<metadata>
Created by potrace 1.11, written by Peter Selinger 2001-2013
</metadata>
<g transform="translate(0.000000,512.000000) scale(0.100000,-0.100000)"
fill="#000000" stroke="none">
<path d="M3737 5100 c-48 -24 -316 -295 -334 -339 -19 -46 -19 -103 2 -144
l16 -32 -33 32 c-39 37 -95 63 -138 63 -61 0 -104 -30 -240 -166 l-136 -135
-139 140 c-77 77 -143 137 -147 135 -3 -2 -2 13 4 33 15 53 3 156 -25 217 -40
87 -129 161 -233 194 -40 13 -137 9 -193 -7 -62 -18 -111 -51 -163 -110 -169
-194 -72 -499 181 -568 24 -6 76 -10 114 -9 l71 3 108 -107 108 -108 -135
-136 c-74 -75 -142 -150 -151 -167 -22 -43 -15 -139 11 -171 11 -13 -1 -4 -25
19 -57 53 -109 72 -168 62 -55 -11 -78 -28 -178 -131 l-81 -83 -160 289 -160
288 15 32 c65 129 27 318 -82 412 -71 62 -138 86 -236 87 -97 0 -155 -20 -228
-80 -184 -151 -160 -450 47 -571 51 -30 47 -28 121 -44 l55 -11 177 -319 c97
-175 172 -315 167 -312 -6 3 -26 3 -45 -1 -29 -5 -66 -37 -190 -160 -89 -89
-161 -170 -169 -190 -19 -44 -19 -102 -1 -137 8 -16 14 -28 12 -28 -1 0 -20
16 -42 35 -56 50 -133 62 -199 30 -16 -8 -96 -81 -177 -162 -111 -112 -151
-158 -162 -191 -8 -23 -15 -46 -14 -50 3 -21 17 -69 24 -87 6 -16 1 -14 -22 8
-16 16 -42 36 -59 45 -37 19 -116 20 -153 1 -45 -23 -320 -302 -337 -342 -18
-43 -19 -68 -4 -122 9 -35 140 -170 972 -1003 529 -530 974 -970 990 -978 15
-8 45 -17 67 -20 75 -11 104 8 271 176 162 161 166 167 174 255 3 31 -23 87
-57 122 l-31 32 44 -13 c42 -13 65 -13 119 0 27 6 327 296 339 327 5 14 21 -8
69 -95 34 -62 78 -142 98 -178 137 -251 142 -253 313 -152 86 51 100 65 101
106 0 26 -73 169 -210 411 -13 22 -49 88 -82 147 l-59 106 100 100 c110 110
133 145 133 206 0 55 -14 87 -59 137 -30 34 -33 39 -12 26 14 -10 44 -19 65
-21 75 -8 108 13 266 171 81 81 155 162 163 179 19 40 19 105 1 147 -7 18 -30
49 -51 69 l-37 37 38 -19 c45 -23 101 -26 148 -6 18 8 95 75 171 150 l137 135
324 -324 c392 -392 355 -374 488 -239 137 137 158 94 -269 522 l-356 356 135
135 c136 137 166 180 166 241 0 43 -25 99 -63 139 l-32 33 33 -16 c42 -22 97
-23 144 -3 45 19 332 305 346 346 18 50 8 127 -21 163 -13 18 -284 292 -600
608 -432 431 -584 577 -612 587 -47 16 -95 14 -138 -7z"/>
</g>
</svg>
